# xmcd
#
# Track frame offsets:
#	150
#	19586
#	33322
#	49683
#	65186
#	80330
#	92414
#	113429
#	129284
#	144215
#	162071
#	180935
#	195730
#	211237
#	230193
#	244817
#	261942
#	279415
#	291486
#	308758
#	325795
#
# Disc length: 4553 seconds
#
# Revision: 1
# Processed by: cddbd v1.5.1PL0 Copyright (c) Steve Scherf et al.
# Submitted via: audiograbber 1.83.01
#
DISCID=1d11c715
DTITLE=Vairous - TTFP-08
DYEAR=1900
DGENRE=Country
TTITLE0=Tim McGraw - Let's Make Love
TTITLE1=Lee Ann Womack - Lord I Hope This Day Is Good
TTITLE2=Shania Twain - Love Gets Me Every Time
TTITLE3=Brad Paisley - Me Neither
TTITLE4=Mark McGuinn - Ms. Steven Rudy
TTITLE5=Martina McBride - My Baby Loves Me
TTITLE6=Tim McGraw - One Of These Days
TTITLE7=Rascal Flatts - Prayin' for Daylight
TTITLE8=Alabama - Song of the South
TTITLE9=Deanna Carter - Strawberry Wine
TTITLE10=Brad Paisley - Two People Fall In Love
TTITLE11=Faith Hill - Way You Love Me
TTITLE12=George Strait - What Do You Say To That
TTITLE13=Clint Black - When I Said I Do
TTITLE14=Alan Jackson - When Somebody Loves You
TTITLE15=Jessica Andrews - Who Am I
TTITLE16=Dixie Chicks - Wide Open Spaces
TTITLE17=Alan Jackson - www.Memory
TTITLE18=Dixie Chicks - You Were Mine
TTITLE19=Shania Twain - You're Still The One
TTITLE20=Shania Twain - You've Got A Way
EXTD=
EXTT0=
EXTT1=
EXTT2=
EXTT3=
EXTT4=
EXTT5=
EXTT6=
EXTT7=
EXTT8=
EXTT9=
EXTT10=
EXTT11=
EXTT12=
EXTT13=
EXTT14=
EXTT15=
EXTT16=
EXTT17=
EXTT18=
EXTT19=
EXTT20=
PLAYORDER=
